<?xml version="1.0" encoding="UTF-8" standalone="no"?><svg xmlns="http://www.w3.org/2000/svg" xmlns:xlink="http://www.w3.org/1999/xlink" contentScriptType="application/ecmascript" contentStyleType="text/css" height="2159px" preserveAspectRatio="none" style="width:1309px;height:2159px;" version="1.1" viewBox="0 0 1309 2159" width="1309px" zoomAndPan="magnify"><defs><filter height="300%" id="fhhcjfelos3qq" width="300%" x="-1" y="-1"><feGaussianBlur result="blurOut" stdDeviation="2.0"/><feColorMatrix in="blurOut" result="blurOut2" type="matrix" values="0 0 0 0 0 0 0 0 0 0 0 0 0 0 0 0 0 0 .4 0"/><feOffset dx="4.0" dy="4.0" in="blurOut2" result="blurOut3"/><feBlend in="SourceGraphic" in2="blurOut3" mode="normal"/></filter></defs><g><rect fill="#ADD8E6" height="2147.9609" style="stroke:#A80036;stroke-width:1.0;" width="139" x="16" y="6"/><text fill="#000000" font-family="sans-serif" font-size="13" font-weight="bold" lengthAdjust="spacing" textLength="43" x="64" y="18.0669">Team</text><rect fill="#90EE90" height="2147.9609" style="stroke:#A80036;stroke-width:1.0;" width="368" x="311" y="6"/><text fill="#000000" font-family="sans-serif" font-size="13" font-weight="bold" lengthAdjust="spacing" textLength="132" x="429" y="18.0669">Deployment SaaS</text><rect fill="#008000" height="2147.9609" style="stroke:#A80036;stroke-width:1.0;" width="474" x="784.5" y="6"/><text fill="#000000" font-family="sans-serif" font-size="13" font-weight="bold" lengthAdjust="spacing" textLength="72" x="985.5" y="18.0669">cloud.gov</text><rect fill="#FFFFFF" filter="url(#fhhcjfelos3qq)" height="261.0625" style="stroke:#A80036;stroke-width:1.0;" width="10" x="550.5" y="563.4219"/><rect fill="#FFFFFF" filter="url(#fhhcjfelos3qq)" height="328.3281" style="stroke:#A80036;stroke-width:1.0;" width="10" x="644.5" y="235.0938"/><rect fill="#FFFFFF" filter="url(#fhhcjfelos3qq)" height="600.3594" style="stroke:#A80036;stroke-width:1.0;" width="10" x="954" y="1493.3047"/><rect fill="#FFFFFF" filter="url(#fhhcjfelos3qq)" height="199.7969" style="stroke:#A80036;stroke-width:1.0;" width="10" x="1150" y="1885.8672"/><rect fill="#FFFFFF" filter="url(#fhhcjfelos3qq)" height="539.2578" style="stroke:#000000;stroke-width:2.0;" width="744.5" x="78" y="293.2266"/><rect fill="#FFFFFF" filter="url(#fhhcjfelos3qq)" height="175.7969" style="stroke:#000000;stroke-width:2.0;" width="724.5" x="88" y="359.4922"/><rect fill="#FFFFFF" filter="url(#fhhcjfelos3qq)" height="175.7969" style="stroke:#000000;stroke-width:2.0;" width="548.5" x="88" y="620.5547"/><rect fill="#FFFFFF" filter="url(#fhhcjfelos3qq)" height="133.6641" style="stroke:#000000;stroke-width:2.0;" width="380" x="10" y="1035.3125"/><rect fill="#FFFFFF" filter="url(#fhhcjfelos3qq)" height="90.2031" style="stroke:#000000;stroke-width:2.0;" width="380" x="10" y="1212.1094"/><rect fill="#FFFFFF" height="43.9375" style="stroke:none;stroke-width:1.0;" width="380" x="10" y="1258.375"/><rect fill="#FFFFFF" filter="url(#fhhcjfelos3qq)" height="148.6641" style="stroke:#000000;stroke-width:2.0;" width="317.5" x="768.5" y="1537.4375"/><rect fill="#FFFFFF" filter="url(#fhhcjfelos3qq)" height="75.3984" style="stroke:#000000;stroke-width:2.0;" width="277" x="778.5" y="1603.7031"/><rect fill="#FFFFFF" filter="url(#fhhcjfelos3qq)" height="356.4297" style="stroke:#000000;stroke-width:2.0;" width="1204" x="88" y="1729.2344"/><rect fill="#FFFFFF" height="310.1641" style="stroke:none;stroke-width:1.0;" width="1204" x="88" y="1775.5"/><rect fill="#FFFFFF" filter="url(#fhhcjfelos3qq)" height="148.6641" style="stroke:#000000;stroke-width:2.0;" width="513.5" x="768.5" y="1930"/><rect fill="#FFFFFF" filter="url(#fhhcjfelos3qq)" height="75.3984" style="stroke:#000000;stroke-width:2.0;" width="486" x="778.5" y="1996.2656"/><line style="stroke:#A80036;stroke-width:1.0;stroke-dasharray:5.0,5.0;" x1="54" x2="54" y1="980.0313" y2="2102.6641"/><line style="stroke:#A80036;stroke-width:1.0;stroke-dasharray:5.0,5.0;" x1="124" x2="124" y1="73.4297" y2="2102.6641"/><line style="stroke:#A80036;stroke-width:1.0;stroke-dasharray:5.0,5.0;" x1="347" x2="347" y1="73.4297" y2="2102.6641"/><line style="stroke:#A80036;stroke-width:1.0;stroke-dasharray:5.0,5.0;" x1="555" x2="555" y1="73.4297" y2="2102.6641"/><line style="stroke:#A80036;stroke-width:1.0;stroke-dasharray:5.0,5.0;" x1="649" x2="649" y1="73.4297" y2="2102.6641"/><line style="stroke:#A80036;stroke-width:1.0;stroke-dasharray:5.0,5.0;" x1="812.5" x2="812.5" y1="1414.2266" y2="2102.6641"/><line style="stroke:#A80036;stroke-width:1.0;stroke-dasharray:5.0,5.0;" x1="958.5" x2="958.5" y1="1459.5234" y2="2102.6641"/><line style="stroke:#A80036;stroke-width:1.0;stroke-dasharray:5.0,5.0;" x1="1154.5" x2="1154.5" y1="1852.0859" y2="2102.6641"/><text fill="#000000" font-family="sans-serif" font-size="14" lengthAdjust="spacing" textLength="62" x="20" y="2114.6592">reviewer</text><ellipse cx="54" cy="2133.9609" fill="#FEFECE" filter="url(#fhhcjfelos3qq)" rx="12" ry="12" style="stroke:#A80036;stroke-width:2.0;"/><line style="stroke:#A80036;stroke-width:2.0;" x1="42" x2="66" y1="2147.9609" y2="2147.9609"/><text fill="#000000" font-family="sans-serif" font-size="14" lengthAdjust="spacing" textLength="47" x="98" y="70.1279">author</text><ellipse cx="124.5" cy="41.1328" fill="#FEFECE" filter="url(#fhhcjfelos3qq)" rx="12" ry="12" style="stroke:#A80036;stroke-width:2.0;"/><line style="stroke:#A80036;stroke-width:2.0;" x1="112.5" x2="136.5" y1="55.1328" y2="55.1328"/><text fill="#000000" font-family="sans-serif" font-size="14" lengthAdjust="spacing" textLength="47" x="98" y="2114.6592">author</text><ellipse cx="124.5" cy="2133.9609" fill="#FEFECE" filter="url(#fhhcjfelos3qq)" rx="12" ry="12" style="stroke:#A80036;stroke-width:2.0;"/><line style="stroke:#A80036;stroke-width:2.0;" x1="112.5" x2="136.5" y1="2147.9609" y2="2147.9609"/><rect fill="#FEFECE" filter="url(#fhhcjfelos3qq)" height="30.2969" style="stroke:#A80036;stroke-width:1.5;" width="61" x="315" y="38.1328"/><text fill="#000000" font-family="sans-serif" font-size="14" lengthAdjust="spacing" textLength="47" x="322" y="58.1279">github</text><rect fill="#FEFECE" filter="url(#fhhcjfelos3qq)" height="30.2969" style="stroke:#A80036;stroke-width:1.5;" width="61" x="315" y="2101.6641"/><text fill="#000000" font-family="sans-serif" font-size="14" lengthAdjust="spacing" textLength="47" x="322" y="2121.6592">github</text><rect fill="#FEFECE" filter="url(#fhhcjfelos3qq)" height="30.2969" style="stroke:#A80036;stroke-width:1.5;" width="113" x="497" y="38.1328"/><text fill="#000000" font-family="sans-serif" font-size="14" lengthAdjust="spacing" textLength="99" x="504" y="58.1279">githubactions</text><rect fill="#FEFECE" filter="url(#fhhcjfelos3qq)" height="30.2969" style="stroke:#A80036;stroke-width:1.5;" width="113" x="497" y="2101.6641"/><text fill="#000000" font-family="sans-serif" font-size="14" lengthAdjust="spacing" textLength="99" x="504" y="2121.6592">githubactions</text><rect fill="#FEFECE" filter="url(#fhhcjfelos3qq)" height="30.2969" style="stroke:#A80036;stroke-width:1.5;" width="47" x="624" y="38.1328"/><text fill="#000000" font-family="sans-serif" font-size="14" lengthAdjust="spacing" textLength="33" x="631" y="58.1279">snyk</text><rect fill="#FEFECE" filter="url(#fhhcjfelos3qq)" height="30.2969" style="stroke:#A80036;stroke-width:1.5;" width="47" x="624" y="2101.6641"/><text fill="#000000" font-family="sans-serif" font-size="14" lengthAdjust="spacing" textLength="33" x="631" y="2121.6592">snyk</text><rect fill="#FEFECE" filter="url(#fhhcjfelos3qq)" height="30.2969" style="stroke:#A80036;stroke-width:1.5;" width="44" x="788.5" y="2101.6641"/><text fill="#000000" font-family="sans-serif" font-size="14" lengthAdjust="spacing" textLength="30" x="795.5" y="2121.6592">capi</text><rect fill="#FEFECE" filter="url(#fhhcjfelos3qq)" height="30.2969" style="stroke:#A80036;stroke-width:1.5;" width="169" x="872.5" y="2101.6641"/><text fill="#000000" font-family="sans-serif" font-size="14" lengthAdjust="spacing" textLength="155" x="879.5" y="2121.6592">application in staging</text><rect fill="#FEFECE" filter="url(#fhhcjfelos3qq)" height="30.2969" style="stroke:#A80036;stroke-width:1.5;" width="195" x="1055.5" y="2101.6641"/><text fill="#000000" font-family="sans-serif" font-size="14" lengthAdjust="spacing" textLength="181" x="1062.5" y="2121.6592">application in production</text><rect fill="#FFFFFF" filter="url(#fhhcjfelos3qq)" height="261.0625" style="stroke:#A80036;stroke-width:1.0;" width="10" x="550.5" y="563.4219"/><rect fill="#FFFFFF" filter="url(#fhhcjfelos3qq)" height="328.3281" style="stroke:#A80036;stroke-width:1.0;" width="10" x="644.5" y="235.0938"/><rect fill="#FFFFFF" filter="url(#fhhcjfelos3qq)" height="600.3594" style="stroke:#A80036;stroke-width:1.0;" width="10" x="954" y="1493.3047"/><rect fill="#FFFFFF" filter="url(#fhhcjfelos3qq)" height="199.7969" style="stroke:#A80036;stroke-width:1.0;" width="10" x="1150" y="1885.8672"/><rect fill="#EEEEEE" filter="url(#fhhcjfelos3qq)" height="3" style="stroke:#EEEEEE;stroke-width:1.0;" width="1302" x="0" y="103.9961"/><line style="stroke:#000000;stroke-width:1.0;" x1="0" x2="1302" y1="103.9961" y2="103.9961"/><line style="stroke:#000000;stroke-width:1.0;" x1="0" x2="1302" y1="106.9961" y2="106.9961"/><rect fill="#EEEEEE" filter="url(#fhhcjfelos3qq)" height="23.1328" style="stroke:#000000;stroke-width:2.0;" width="181" x="560.5" y="93.4297"/><text fill="#000000" font-family="sans-serif" font-size="13" font-weight="bold" lengthAdjust="spacing" textLength="162" x="566.5" y="109.4966">Preparing the change</text><line style="stroke:#A80036;stroke-width:1.0;" x1="345.5" x2="335.5" y1="147.6953" y2="143.6953"/><line style="stroke:#A80036;stroke-width:1.0;" x1="345.5" x2="335.5" y1="147.6953" y2="151.6953"/><line style="stroke:#A80036;stroke-width:1.0;" x1="124.5" x2="346.5" y1="147.6953" y2="147.6953"/><text fill="#000000" font-family="sans-serif" font-size="13" lengthAdjust="spacing" textLength="79" x="131.5" y="142.6294">push branch</text><line style="stroke:#A80036;stroke-width:1.0;" x1="345.5" x2="335.5" y1="176.8281" y2="172.8281"/><line style="stroke:#A80036;stroke-width:1.0;" x1="345.5" x2="335.5" y1="176.8281" y2="180.8281"/><line style="stroke:#A80036;stroke-width:1.0;" x1="124.5" x2="346.5" y1="176.8281" y2="176.8281"/><text fill="#000000" font-family="sans-serif" font-size="13" lengthAdjust="spacing" textLength="110" x="131.5" y="171.7622">start pull-request</text><line style="stroke:#A80036;stroke-width:1.0;" x1="553.5" x2="543.5" y1="205.9609" y2="201.9609"/><line style="stroke:#A80036;stroke-width:1.0;" x1="553.5" x2="543.5" y1="205.9609" y2="209.9609"/><line style="stroke:#A80036;stroke-width:1.0;" x1="347.5" x2="554.5" y1="205.9609" y2="205.9609"/><text fill="#000000" font-family="sans-serif" font-size="13" lengthAdjust="spacing" textLength="105" x="354.5" y="200.895">branch available</text><line style="stroke:#A80036;stroke-width:1.0;" x1="642.5" x2="632.5" y1="235.0938" y2="231.0938"/><line style="stroke:#A80036;stroke-width:1.0;" x1="642.5" x2="632.5" y1="235.0938" y2="239.0938"/><line style="stroke:#A80036;stroke-width:1.0;" x1="347.5" x2="643.5" y1="235.0938" y2="235.0938"/><text fill="#000000" font-family="sans-serif" font-size="13" lengthAdjust="spacing" textLength="105" x="354.5" y="230.0278">branch available</text><rect fill="#EEEEEE" filter="url(#fhhcjfelos3qq)" height="3" style="stroke:#EEEEEE;stroke-width:1.0;" width="1302" x="0" y="263.6602"/><line style="stroke:#000000;stroke-width:1.0;" x1="0" x2="1302" y1="263.6602" y2="263.6602"/><line style="stroke:#000000;stroke-width:1.0;" x1="0" x2="1302" y1="266.6602" y2="266.6602"/><rect fill="#EEEEEE" filter="url(#fhhcjfelos3qq)" height="23.1328" style="stroke:#000000;stroke-width:2.0;" width="175" x="563.5" y="253.0938"/><text fill="#000000" font-family="sans-serif" font-size="13" font-weight="bold" lengthAdjust="spacing" textLength="156" x="569.5" y="269.1606">Checking the change</text><path d="M78,293.2266 L148,293.2266 L148,300.2266 L138,310.2266 L78,310.2266 L78,293.2266 " fill="#EEEEEE" style="stroke:#000000;stroke-width:1.0;"/><rect fill="none" height="539.2578" style="stroke:#000000;stroke-width:2.0;" width="744.5" x="78" y="293.2266"/><text fill="#000000" font-family="sans-serif" font-size="13" font-weight="bold" lengthAdjust="spacing" textLength="25" x="93" y="306.2935">par</text><text fill="#000000" font-family="sans-serif" font-size="11" font-weight="bold" lengthAdjust="spacing" textLength="290" x="163" y="305.437">[Snyk and GitHub Actions check the branch]</text><line style="stroke:#A80036;stroke-width:1.0;" x1="654.5" x2="696.5" y1="331.4922" y2="331.4922"/><line style="stroke:#A80036;stroke-width:1.0;" x1="696.5" x2="696.5" y1="331.4922" y2="344.4922"/><line style="stroke:#A80036;stroke-width:1.0;" x1="655.5" x2="696.5" y1="344.4922" y2="344.4922"/><polygon fill="#A80036" points="665.5,340.4922,655.5,344.4922,665.5,348.4922,661.5,344.4922" style="stroke:#A80036;stroke-width:1.0;"/><text fill="#000000" font-family="sans-serif" font-size="13" lengthAdjust="spacing" textLength="139" x="661.5" y="326.4263">inspect dependencies</text><path d="M88,359.4922 L166,359.4922 L166,366.4922 L156,376.4922 L88,376.4922 L88,359.4922 " fill="#EEEEEE" style="stroke:#000000;stroke-width:1.0;"/><rect fill="none" height="175.7969" style="stroke:#000000;stroke-width:2.0;" width="724.5" x="88" y="359.4922"/><text fill="#000000" font-family="sans-serif" font-size="13" font-weight="bold" lengthAdjust="spacing" textLength="33" x="103" y="372.5591">loop</text><text fill="#000000" font-family="sans-serif" font-size="11" font-weight="bold" lengthAdjust="spacing" textLength="175" x="181" y="371.7026">[vulnerabilities are found]</text><line style="stroke:#A80036;stroke-width:1.0;" x1="347.5" x2="357.5" y1="397.7578" y2="393.7578"/><line style="stroke:#A80036;stroke-width:1.0;" x1="347.5" x2="357.5" y1="397.7578" y2="401.7578"/><line style="stroke:#A80036;stroke-width:1.0;stroke-dasharray:2.0,2.0;" x1="347.5" x2="643.5" y1="397.7578" y2="397.7578"/><text fill="#000000" font-family="sans-serif" font-size="13" lengthAdjust="spacing" textLength="103" x="364.5" y="392.6919">report problems</text><line style="stroke:#A80036;stroke-width:1.0;" x1="124.5" x2="134.5" y1="426.8906" y2="422.8906"/><line style="stroke:#A80036;stroke-width:1.0;" x1="124.5" x2="134.5" y1="426.8906" y2="430.8906"/><line style="stroke:#A80036;stroke-width:1.0;stroke-dasharray:2.0,2.0;" x1="124.5" x2="346.5" y1="426.8906" y2="426.8906"/><text fill="#000000" font-family="sans-serif" font-size="13" lengthAdjust="spacing" textLength="83" x="141.5" y="421.8247">report failure</text><line style="stroke:#A80036;stroke-width:1.0;" x1="345.5" x2="335.5" y1="456.0234" y2="452.0234"/><line style="stroke:#A80036;stroke-width:1.0;" x1="345.5" x2="335.5" y1="456.0234" y2="460.0234"/><line style="stroke:#A80036;stroke-width:1.0;" x1="124.5" x2="346.5" y1="456.0234" y2="456.0234"/><text fill="#000000" font-family="sans-serif" font-size="13" lengthAdjust="spacing" textLength="154" x="131.5" y="450.9575">push changes to branch</text><line style="stroke:#A80036;stroke-width:1.0;" x1="642.5" x2="632.5" y1="485.1563" y2="481.1563"/><line style="stroke:#A80036;stroke-width:1.0;" x1="642.5" x2="632.5" y1="485.1563" y2="489.1563"/><line style="stroke:#A80036;stroke-width:1.0;" x1="347.5" x2="643.5" y1="485.1563" y2="485.1563"/><text fill="#000000" font-family="sans-serif" font-size="13" lengthAdjust="spacing" textLength="115" x="354.5" y="480.0903">changes available</text><line style="stroke:#A80036;stroke-width:1.0;" x1="654.5" x2="696.5" y1="514.2891" y2="514.2891"/><line style="stroke:#A80036;stroke-width:1.0;" x1="696.5" x2="696.5" y1="514.2891" y2="527.2891"/><line style="stroke:#A80036;stroke-width:1.0;" x1="655.5" x2="696.5" y1="527.2891" y2="527.2891"/><polygon fill="#A80036" points="665.5,523.2891,655.5,527.2891,665.5,531.2891,661.5,527.2891" style="stroke:#A80036;stroke-width:1.0;"/><text fill="#000000" font-family="sans-serif" font-size="13" lengthAdjust="spacing" textLength="139" x="661.5" y="509.2231">inspect dependencies</text><line style="stroke:#A80036;stroke-width:1.0;" x1="347.5" x2="357.5" y1="563.4219" y2="559.4219"/><line style="stroke:#A80036;stroke-width:1.0;" x1="347.5" x2="357.5" y1="563.4219" y2="567.4219"/><line style="stroke:#A80036;stroke-width:1.0;stroke-dasharray:2.0,2.0;" x1="347.5" x2="648.5" y1="563.4219" y2="563.4219"/><text fill="#000000" font-family="sans-serif" font-size="13" lengthAdjust="spacing" textLength="94" x="364.5" y="558.356">report success</text><line style="stroke:#A80036;stroke-width:1.0;" x1="560.5" x2="602.5" y1="592.5547" y2="592.5547"/><line style="stroke:#A80036;stroke-width:1.0;" x1="602.5" x2="602.5" y1="592.5547" y2="605.5547"/><line style="stroke:#A80036;stroke-width:1.0;" x1="561.5" x2="602.5" y1="605.5547" y2="605.5547"/><polygon fill="#A80036" points="571.5,601.5547,561.5,605.5547,571.5,609.5547,567.5,605.5547" style="stroke:#A80036;stroke-width:1.0;"/><text fill="#000000" font-family="sans-serif" font-size="13" lengthAdjust="spacing" textLength="57" x="567.5" y="587.4888">run tests</text><path d="M88,620.5547 L166,620.5547 L166,627.5547 L156,637.5547 L88,637.5547 L88,620.5547 " fill="#EEEEEE" style="stroke:#000000;stroke-width:1.0;"/><rect fill="none" height="175.7969" style="stroke:#000000;stroke-width:2.0;" width="548.5" x="88" y="620.5547"/><text fill="#000000" font-family="sans-serif" font-size="13" font-weight="bold" lengthAdjust="spacing" textLength="33" x="103" y="633.6216">loop</text><text fill="#000000" font-family="sans-serif" font-size="11" font-weight="bold" lengthAdjust="spacing" textLength="119" x="181" y="632.7651">[tests are failing]</text><line style="stroke:#A80036;stroke-width:1.0;" x1="347.5" x2="357.5" y1="658.8203" y2="654.8203"/><line style="stroke:#A80036;stroke-width:1.0;" x1="347.5" x2="357.5" y1="658.8203" y2="662.8203"/><line style="stroke:#A80036;stroke-width:1.0;stroke-dasharray:2.0,2.0;" x1="347.5" x2="549.5" y1="658.8203" y2="658.8203"/><text fill="#000000" font-family="sans-serif" font-size="13" lengthAdjust="spacing" textLength="103" x="364.5" y="653.7544">report problems</text><line style="stroke:#A80036;stroke-width:1.0;" x1="124.5" x2="134.5" y1="687.9531" y2="683.9531"/><line style="stroke:#A80036;stroke-width:1.0;" x1="124.5" x2="134.5" y1="687.9531" y2="691.9531"/><line style="stroke:#A80036;stroke-width:1.0;stroke-dasharray:2.0,2.0;" x1="124.5" x2="346.5" y1="687.9531" y2="687.9531"/><text fill="#000000" font-family="sans-serif" font-size="13" lengthAdjust="spacing" textLength="83" x="141.5" y="682.8872">report failure</text><line style="stroke:#A80036;stroke-width:1.0;" x1="345.5" x2="335.5" y1="717.0859" y2="713.0859"/><line style="stroke:#A80036;stroke-width:1.0;" x1="345.5" x2="335.5" y1="717.0859" y2="721.0859"/><line style="stroke:#A80036;stroke-width:1.0;" x1="124.5" x2="346.5" y1="717.0859" y2="717.0859"/><text fill="#000000" font-family="sans-serif" font-size="13" lengthAdjust="spacing" textLength="154" x="131.5" y="712.02">push changes to branch</text><line style="stroke:#A80036;stroke-width:1.0;" x1="548.5" x2="538.5" y1="746.2188" y2="742.2188"/><line style="stroke:#A80036;stroke-width:1.0;" x1="548.5" x2="538.5" y1="746.2188" y2="750.2188"/><line style="stroke:#A80036;stroke-width:1.0;" x1="347.5" x2="549.5" y1="746.2188" y2="746.2188"/><text fill="#000000" font-family="sans-serif" font-size="13" lengthAdjust="spacing" textLength="115" x="354.5" y="741.1528">changes available</text><line style="stroke:#A80036;stroke-width:1.0;" x1="560.5" x2="602.5" y1="775.3516" y2="775.3516"/><line style="stroke:#A80036;stroke-width:1.0;" x1="602.5" x2="602.5" y1="775.3516" y2="788.3516"/><line style="stroke:#A80036;stroke-width:1.0;" x1="561.5" x2="602.5" y1="788.3516" y2="788.3516"/><polygon fill="#A80036" points="571.5,784.3516,561.5,788.3516,571.5,792.3516,567.5,788.3516" style="stroke:#A80036;stroke-width:1.0;"/><text fill="#000000" font-family="sans-serif" font-size="13" lengthAdjust="spacing" textLength="57" x="567.5" y="770.2856">run tests</text><line style="stroke:#A80036;stroke-width:1.0;" x1="347.5" x2="357.5" y1="824.4844" y2="820.4844"/><line style="stroke:#A80036;stroke-width:1.0;" x1="347.5" x2="357.5" y1="824.4844" y2="828.4844"/><line style="stroke:#A80036;stroke-width:1.0;stroke-dasharray:2.0,2.0;" x1="347.5" x2="554.5" y1="824.4844" y2="824.4844"/><text fill="#000000" font-family="sans-serif" font-size="13" lengthAdjust="spacing" textLength="94" x="364.5" y="819.4185">report success</text><line style="stroke:#A80036;stroke-width:1.0;" x1="124.5" x2="134.5" y1="860.6172" y2="856.6172"/><line style="stroke:#A80036;stroke-width:1.0;" x1="124.5" x2="134.5" y1="860.6172" y2="864.6172"/><line style="stroke:#A80036;stroke-width:1.0;stroke-dasharray:2.0,2.0;" x1="124.5" x2="346.5" y1="860.6172" y2="860.6172"/><text fill="#000000" font-family="sans-serif" font-size="13" lengthAdjust="spacing" textLength="109" x="141.5" y="855.5513">report successes</text><rect fill="#EEEEEE" filter="url(#fhhcjfelos3qq)" height="3" style="stroke:#EEEEEE;stroke-width:1.0;" width="1302" x="0" y="889.1836"/><line style="stroke:#000000;stroke-width:1.0;" x1="0" x2="1302" y1="889.1836" y2="889.1836"/><line style="stroke:#000000;stroke-width:1.0;" x1="0" x2="1302" y1="892.1836" y2="892.1836"/><rect fill="#EEEEEE" filter="url(#fhhcjfelos3qq)" height="23.1328" style="stroke:#000000;stroke-width:2.0;" width="182" x="560" y="878.6172"/><text fill="#000000" font-family="sans-serif" font-size="13" font-weight="bold" lengthAdjust="spacing" textLength="163" x="566" y="894.6841">Reviewing the change</text><line style="stroke:#A80036;stroke-width:1.0;" x1="345.5" x2="335.5" y1="932.8828" y2="928.8828"/><line style="stroke:#A80036;stroke-width:1.0;" x1="345.5" x2="335.5" y1="932.8828" y2="936.8828"/><line style="stroke:#A80036;stroke-width:1.0;" x1="124.5" x2="346.5" y1="932.8828" y2="932.8828"/><text fill="#000000" font-family="sans-serif" font-size="13" lengthAdjust="spacing" textLength="96" x="131.5" y="927.8169">request review</text><line style="stroke:#A80036;stroke-width:1.0;" x1="88" x2="98" y1="962.0156" y2="958.0156"/><line style="stroke:#A80036;stroke-width:1.0;" x1="88" x2="98" y1="962.0156" y2="966.0156"/><line style="stroke:#A80036;stroke-width:1.0;stroke-dasharray:2.0,2.0;" x1="88" x2="346.5" y1="962.0156" y2="962.0156"/><text fill="#000000" font-family="sans-serif" font-size="13" lengthAdjust="spacing" textLength="134" x="105" y="956.9497">notify of pull-request</text><text fill="#000000" font-family="sans-serif" font-size="14" lengthAdjust="spacing" textLength="62" x="20" y="985.8779">reviewer</text><ellipse cx="54" cy="956.8828" fill="#FEFECE" filter="url(#fhhcjfelos3qq)" rx="12" ry="12" style="stroke:#A80036;stroke-width:2.0;"/><line style="stroke:#A80036;stroke-width:2.0;" x1="42" x2="66" y1="970.8828" y2="970.8828"/><line style="stroke:#A80036;stroke-width:1.0;" x1="345.5" x2="335.5" y1="1020.3125" y2="1016.3125"/><line style="stroke:#A80036;stroke-width:1.0;" x1="345.5" x2="335.5" y1="1020.3125" y2="1024.3125"/><line style="stroke:#A80036;stroke-width:1.0;" x1="54" x2="346.5" y1="1020.3125" y2="1020.3125"/><text fill="#000000" font-family="sans-serif" font-size="13" lengthAdjust="spacing" textLength="98" x="61" y="1015.2466">inspect  branch</text><path d="M10,1035.3125 L88,1035.3125 L88,1042.3125 L78,1052.3125 L10,1052.3125 L10,1035.3125 " fill="#EEEEEE" style="stroke:#000000;stroke-width:1.0;"/><rect fill="none" height="133.6641" style="stroke:#000000;stroke-width:2.0;" width="380" x="10" y="1035.3125"/><text fill="#000000" font-family="sans-serif" font-size="13" font-weight="bold" lengthAdjust="spacing" textLength="33" x="25" y="1048.3794">loop</text><text fill="#000000" font-family="sans-serif" font-size="11" font-weight="bold" lengthAdjust="spacing" textLength="207" x="103" y="1047.5229">[change needed/bug identified]</text><line style="stroke:#A80036;stroke-width:1.0;" x1="345.5" x2="335.5" y1="1073.5781" y2="1069.5781"/><line style="stroke:#A80036;stroke-width:1.0;" x1="345.5" x2="335.5" y1="1073.5781" y2="1077.5781"/><line style="stroke:#A80036;stroke-width:1.0;" x1="54" x2="346.5" y1="1073.5781" y2="1073.5781"/><text fill="#000000" font-family="sans-serif" font-size="13" lengthAdjust="spacing" textLength="83" x="61" y="1068.5122">note findings</text><line style="stroke:#A80036;stroke-width:1.0;" x1="124.5" x2="134.5" y1="1102.7109" y2="1098.7109"/><line style="stroke:#A80036;stroke-width:1.0;" x1="124.5" x2="134.5" y1="1102.7109" y2="1106.7109"/><line style="stroke:#A80036;stroke-width:1.0;stroke-dasharray:2.0,2.0;" x1="124.5" x2="346.5" y1="1102.7109" y2="1102.7109"/><text fill="#000000" font-family="sans-serif" font-size="13" lengthAdjust="spacing" textLength="93" x="141.5" y="1097.645">report findings</text><line style="stroke:#A80036;stroke-width:1.0;" x1="345.5" x2="335.5" y1="1131.8438" y2="1127.8438"/><line style="stroke:#A80036;stroke-width:1.0;" x1="345.5" x2="335.5" y1="1131.8438" y2="1135.8438"/><line style="stroke:#A80036;stroke-width:1.0;" x1="124.5" x2="346.5" y1="1131.8438" y2="1131.8438"/><text fill="#000000" font-family="sans-serif" font-size="13" lengthAdjust="spacing" textLength="154" x="131.5" y="1126.7778">push changes to branch</text><line style="stroke:#A80036;stroke-width:1.0;" x1="54" x2="64" y1="1160.9766" y2="1156.9766"/><line style="stroke:#A80036;stroke-width:1.0;" x1="54" x2="64" y1="1160.9766" y2="1164.9766"/><line style="stroke:#A80036;stroke-width:1.0;stroke-dasharray:2.0,2.0;" x1="54" x2="346.5" y1="1160.9766" y2="1160.9766"/><text fill="#000000" font-family="sans-serif" font-size="13" lengthAdjust="spacing" textLength="97" x="71" y="1155.9106">report changes</text><line style="stroke:#A80036;stroke-width:1.0;" x1="345.5" x2="335.5" y1="1197.1094" y2="1193.1094"/><line style="stroke:#A80036;stroke-width:1.0;" x1="345.5" x2="335.5" y1="1197.1094" y2="1201.1094"/><line style="stroke:#A80036;stroke-width:1.0;" x1="54" x2="346.5" y1="1197.1094" y2="1197.1094"/><text fill="#000000" font-family="sans-serif" font-size="13" lengthAdjust="spacing" textLength="133" x="61" y="1192.0435">approve pull-request</text><path d="M10,1212.1094 L76,1212.1094 L76,1219.1094 L66,1229.1094 L10,1229.1094 L10,1212.1094 " fill="#EEEEEE" style="stroke:#000000;stroke-width:1.0;"/><rect fill="none" height="90.2031" style="stroke:#000000;stroke-width:2.0;" width="380" x="10" y="1212.1094"/><text fill="#000000" font-family="sans-serif" font-size="13" font-weight="bold" lengthAdjust="spacing" textLength="21" x="25" y="1225.1763">alt</text><text fill="#000000" font-family="sans-serif" font-size="11" font-weight="bold" lengthAdjust="spacing" textLength="128" x="91" y="1224.3198">[either the author]</text><line style="stroke:#A80036;stroke-width:1.0;" x1="345.5" x2="335.5" y1="1250.375" y2="1246.375"/><line style="stroke:#A80036;stroke-width:1.0;" x1="345.5" x2="335.5" y1="1250.375" y2="1254.375"/><line style="stroke:#A80036;stroke-width:1.0;" x1="124.5" x2="346.5" y1="1250.375" y2="1250.375"/><text fill="#000000" font-family="sans-serif" font-size="13" lengthAdjust="spacing" textLength="199" x="131.5" y="1245.3091">merge into deployment branch</text><line style="stroke:#000000;stroke-width:1.0;stroke-dasharray:2.0,2.0;" x1="10" x2="390" y1="1259.375" y2="1259.375"/><text fill="#000000" font-family="sans-serif" font-size="11" font-weight="bold" lengthAdjust="spacing" textLength="113" x="15" y="1269.5854">[or the reviewer]</text><line style="stroke:#A80036;stroke-width:1.0;" x1="345.5" x2="335.5" y1="1294.3125" y2="1290.3125"/><line style="stroke:#A80036;stroke-width:1.0;" x1="345.5" x2="335.5" y1="1294.3125" y2="1298.3125"/><line style="stroke:#A80036;stroke-width:1.0;" x1="54" x2="346.5" y1="1294.3125" y2="1294.3125"/><text fill="#000000" font-family="sans-serif" font-size="13" lengthAdjust="spacing" textLength="199" x="61" y="1289.2466">merge into deployment branch</text><rect fill="#EEEEEE" filter="url(#fhhcjfelos3qq)" height="3" style="stroke:#EEEEEE;stroke-width:1.0;" width="1302" x="0" y="1329.8789"/><line style="stroke:#000000;stroke-width:1.0;" x1="0" x2="1302" y1="1329.8789" y2="1329.8789"/><line style="stroke:#000000;stroke-width:1.0;" x1="0" x2="1302" y1="1332.8789" y2="1332.8789"/><rect fill="#EEEEEE" filter="url(#fhhcjfelos3qq)" height="23.1328" style="stroke:#000000;stroke-width:2.0;" width="181" x="560.5" y="1319.3125"/><text fill="#000000" font-family="sans-serif" font-size="13" font-weight="bold" lengthAdjust="spacing" textLength="162" x="566.5" y="1335.3794">Deploying the change</text><line style="stroke:#A80036;stroke-width:1.0;" x1="553.5" x2="543.5" y1="1373.5781" y2="1369.5781"/><line style="stroke:#A80036;stroke-width:1.0;" x1="553.5" x2="543.5" y1="1373.5781" y2="1377.5781"/><line style="stroke:#A80036;stroke-width:1.0;" x1="347.5" x2="554.5" y1="1373.5781" y2="1373.5781"/><text fill="#000000" font-family="sans-serif" font-size="13" lengthAdjust="spacing" textLength="184" x="354.5" y="1368.5122">deployment branch changed</text><polygon fill="#A80036" points="776.5,1398.7109,786.5,1402.7109,776.5,1406.7109,780.5,1402.7109" style="stroke:#A80036;stroke-width:1.0;"/><line style="stroke:#A80036;stroke-width:1.0;" x1="555.5" x2="782.5" y1="1402.7109" y2="1402.7109"/><text fill="#000000" font-family="sans-serif" font-size="13" lengthAdjust="spacing" textLength="134" x="562.5" y="1397.645">push code to staging</text><rect fill="#FEFECE" filter="url(#fhhcjfelos3qq)" height="30.2969" style="stroke:#A80036;stroke-width:1.5;" width="44" x="788.5" y="1381.5781"/><text fill="#000000" font-family="sans-serif" font-size="14" lengthAdjust="spacing" textLength="30" x="795.5" y="1401.5732">capi</text><polygon fill="#A80036" points="860.5,1444.0078,870.5,1448.0078,860.5,1452.0078,864.5,1448.0078" style="stroke:#A80036;stroke-width:1.0;"/><line style="stroke:#A80036;stroke-width:1.0;" x1="812.5" x2="866.5" y1="1448.0078" y2="1448.0078"/><text fill="#000000" font-family="sans-serif" font-size="13" lengthAdjust="spacing" textLength="36" x="819.5" y="1442.9419">stage</text><rect fill="#FEFECE" filter="url(#fhhcjfelos3qq)" height="30.2969" style="stroke:#A80036;stroke-width:1.5;" width="169" x="872.5" y="1426.875"/><text fill="#000000" font-family="sans-serif" font-size="14" lengthAdjust="spacing" textLength="155" x="879.5" y="1446.8701">application in staging</text><polygon fill="#A80036" points="942,1489.3047,952,1493.3047,942,1497.3047,946,1493.3047" style="stroke:#A80036;stroke-width:1.0;"/><line style="stroke:#A80036;stroke-width:1.0;" x1="812.5" x2="948" y1="1493.3047" y2="1493.3047"/><text fill="#000000" font-family="sans-serif" font-size="13" lengthAdjust="spacing" textLength="30" x="819.5" y="1488.2388">start</text><line style="stroke:#A80036;stroke-width:1.0;" x1="952" x2="942" y1="1522.4375" y2="1518.4375"/><line style="stroke:#A80036;stroke-width:1.0;" x1="952" x2="942" y1="1522.4375" y2="1526.4375"/><line style="stroke:#A80036;stroke-width:1.0;" x1="812.5" x2="953" y1="1522.4375" y2="1522.4375"/><text fill="#000000" font-family="sans-serif" font-size="13" lengthAdjust="spacing" textLength="50" x="819.5" y="1517.3716">monitor</text><path d="M768.5,1537.4375 L846.5,1537.4375 L846.5,1544.4375 L836.5,1554.4375 L768.5,1554.4375 L768.5,1537.4375 " fill="#EEEEEE" style="stroke:#000000;stroke-width:1.0;"/><rect fill="none" height="148.6641" style="stroke:#000000;stroke-width:2.0;" width="317.5" x="768.5" y="1537.4375"/><text fill="#000000" font-family="sans-serif" font-size="13" font-weight="bold" lengthAdjust="spacing" textLength="33" x="783.5" y="1550.5044">loop</text><line style="stroke:#A80036;stroke-width:1.0;" x1="964" x2="1006" y1="1575.7031" y2="1575.7031"/><line style="stroke:#A80036;stroke-width:1.0;" x1="1006" x2="1006" y1="1575.7031" y2="1588.7031"/><line style="stroke:#A80036;stroke-width:1.0;" x1="965" x2="1006" y1="1588.7031" y2="1588.7031"/><line style="stroke:#A80036;stroke-width:1.0;" x1="965" x2="975" y1="1588.7031" y2="1584.7031"/><line style="stroke:#A80036;stroke-width:1.0;" x1="965" x2="975" y1="1588.7031" y2="1592.7031"/><text fill="#000000" font-family="sans-serif" font-size="13" lengthAdjust="spacing" textLength="103" x="971" y="1570.6372">handle requests</text><path d="M778.5,1603.7031 L850.5,1603.7031 L850.5,1610.7031 L840.5,1620.7031 L778.5,1620.7031 L778.5,1603.7031 " fill="#EEEEEE" style="stroke:#000000;stroke-width:1.0;"/><rect fill="none" height="75.3984" style="stroke:#000000;stroke-width:2.0;" width="277" x="778.5" y="1603.7031"/><text fill="#000000" font-family="sans-serif" font-size="13" font-weight="bold" lengthAdjust="spacing" textLength="27" x="793.5" y="1616.77">opt</text><line style="stroke:#A80036;stroke-width:1.0;" x1="812.5" x2="822.5" y1="1641.9688" y2="1637.9688"/><line style="stroke:#A80036;stroke-width:1.0;" x1="812.5" x2="822.5" y1="1641.9688" y2="1645.9688"/><line style="stroke:#A80036;stroke-width:1.0;" x1="812.5" x2="953" y1="1641.9688" y2="1641.9688"/><text fill="#000000" font-family="sans-serif" font-size="13" lengthAdjust="spacing" textLength="63" x="829.5" y="1636.9028">app crash</text><line style="stroke:#A80036;stroke-width:1.0;" x1="952" x2="942" y1="1671.1016" y2="1667.1016"/><line style="stroke:#A80036;stroke-width:1.0;" x1="952" x2="942" y1="1671.1016" y2="1675.1016"/><line style="stroke:#A80036;stroke-width:1.0;" x1="812.5" x2="953" y1="1671.1016" y2="1671.1016"/><text fill="#000000" font-family="sans-serif" font-size="13" lengthAdjust="spacing" textLength="43" x="819.5" y="1666.0356">restart</text><polygon fill="#A80036" points="942,1710.2344,952,1714.2344,942,1718.2344,946,1714.2344" style="stroke:#A80036;stroke-width:1.0;"/><line style="stroke:#A80036;stroke-width:1.0;" x1="555.5" x2="948" y1="1714.2344" y2="1714.2344"/><text fill="#000000" font-family="sans-serif" font-size="13" lengthAdjust="spacing" textLength="104" x="562.5" y="1709.1685">run smoke tests</text><path d="M88,1729.2344 L154,1729.2344 L154,1736.2344 L144,1746.2344 L88,1746.2344 L88,1729.2344 " fill="#EEEEEE" style="stroke:#000000;stroke-width:1.0;"/><rect fill="none" height="356.4297" style="stroke:#000000;stroke-width:2.0;" width="1204" x="88" y="1729.2344"/><text fill="#000000" font-family="sans-serif" font-size="13" font-weight="bold" lengthAdjust="spacing" textLength="21" x="103" y="1742.3013">alt</text><text fill="#000000" font-family="sans-serif" font-size="11" font-weight="bold" lengthAdjust="spacing" textLength="120" x="169" y="1741.4448">[smoke tests fail]</text><line style="stroke:#A80036;stroke-width:1.0;" x1="124.5" x2="134.5" y1="1767.5" y2="1763.5"/><line style="stroke:#A80036;stroke-width:1.0;" x1="124.5" x2="134.5" y1="1767.5" y2="1771.5"/><line style="stroke:#A80036;stroke-width:1.0;stroke-dasharray:2.0,2.0;" x1="124.5" x2="554.5" y1="1767.5" y2="1767.5"/><text fill="#000000" font-family="sans-serif" font-size="13" lengthAdjust="spacing" textLength="103" x="141.5" y="1762.4341">report problems</text><line style="stroke:#000000;stroke-width:1.0;stroke-dasharray:2.0,2.0;" x1="88" x2="1292" y1="1776.5" y2="1776.5"/><text fill="#000000" font-family="sans-serif" font-size="11" font-weight="bold" lengthAdjust="spacing" textLength="127" x="93" y="1786.7104">[smoke tests pass]</text><polygon fill="#A80036" points="800.5,1807.4375,810.5,1811.4375,800.5,1815.4375,804.5,1811.4375" style="stroke:#A80036;stroke-width:1.0;"/><line style="stroke:#A80036;stroke-width:1.0;" x1="555.5" x2="806.5" y1="1811.4375" y2="1811.4375"/><text fill="#000000" font-family="sans-serif" font-size="13" lengthAdjust="spacing" textLength="155" x="562.5" y="1806.3716">push code to production</text><polygon fill="#A80036" points="1043.5,1836.5703,1053.5,1840.5703,1043.5,1844.5703,1047.5,1840.5703" style="stroke:#A80036;stroke-width:1.0;"/><line style="stroke:#A80036;stroke-width:1.0;" x1="812.5" x2="1049.5" y1="1840.5703" y2="1840.5703"/><text fill="#000000" font-family="sans-serif" font-size="13" lengthAdjust="spacing" textLength="36" x="819.5" y="1835.5044">stage</text><rect fill="#FEFECE" filter="url(#fhhcjfelos3qq)" height="30.2969" style="stroke:#A80036;stroke-width:1.5;" width="195" x="1055.5" y="1819.4375"/><text fill="#000000" font-family="sans-serif" font-size="14" lengthAdjust="spacing" textLength="181" x="1062.5" y="1839.4326">application in production</text><polygon fill="#A80036" points="1138,1881.8672,1148,1885.8672,1138,1889.8672,1142,1885.8672" style="stroke:#A80036;stroke-width:1.0;"/><line style="stroke:#A80036;stroke-width:1.0;" x1="812.5" x2="1144" y1="1885.8672" y2="1885.8672"/><text fill="#000000" font-family="sans-serif" font-size="13" lengthAdjust="spacing" textLength="30" x="819.5" y="1880.8013">start</text><line style="stroke:#A80036;stroke-width:1.0;" x1="1148" x2="1138" y1="1915" y2="1911"/><line style="stroke:#A80036;stroke-width:1.0;" x1="1148" x2="1138" y1="1915" y2="1919"/><line style="stroke:#A80036;stroke-width:1.0;" x1="812.5" x2="1149" y1="1915" y2="1915"/><text fill="#000000" font-family="sans-serif" font-size="13" lengthAdjust="spacing" textLength="50" x="819.5" y="1909.9341">monitor</text><path d="M768.5,1930 L846.5,1930 L846.5,1937 L836.5,1947 L768.5,1947 L768.5,1930 " fill="#EEEEEE" style="stroke:#000000;stroke-width:1.0;"/><rect fill="none" height="148.6641" style="stroke:#000000;stroke-width:2.0;" width="513.5" x="768.5" y="1930"/><text fill="#000000" font-family="sans-serif" font-size="13" font-weight="bold" lengthAdjust="spacing" textLength="33" x="783.5" y="1943.0669">loop</text><line style="stroke:#A80036;stroke-width:1.0;" x1="1160" x2="1202" y1="1968.2656" y2="1968.2656"/><line style="stroke:#A80036;stroke-width:1.0;" x1="1202" x2="1202" y1="1968.2656" y2="1981.2656"/><line style="stroke:#A80036;stroke-width:1.0;" x1="1161" x2="1202" y1="1981.2656" y2="1981.2656"/><line style="stroke:#A80036;stroke-width:1.0;" x1="1161" x2="1171" y1="1981.2656" y2="1977.2656"/><line style="stroke:#A80036;stroke-width:1.0;" x1="1161" x2="1171" y1="1981.2656" y2="1985.2656"/><text fill="#000000" font-family="sans-serif" font-size="13" lengthAdjust="spacing" textLength="103" x="1167" y="1963.1997">handle requests</text><path d="M778.5,1996.2656 L850.5,1996.2656 L850.5,2003.2656 L840.5,2013.2656 L778.5,2013.2656 L778.5,1996.2656 " fill="#EEEEEE" style="stroke:#000000;stroke-width:1.0;"/><rect fill="none" height="75.3984" style="stroke:#000000;stroke-width:2.0;" width="486" x="778.5" y="1996.2656"/><text fill="#000000" font-family="sans-serif" font-size="13" font-weight="bold" lengthAdjust="spacing" textLength="27" x="793.5" y="2009.3325">opt</text><line style="stroke:#A80036;stroke-width:1.0;" x1="812.5" x2="822.5" y1="2034.5313" y2="2030.5313"/><line style="stroke:#A80036;stroke-width:1.0;" x1="812.5" x2="822.5" y1="2034.5313" y2="2038.5313"/><line style="stroke:#A80036;stroke-width:1.0;" x1="812.5" x2="1149" y1="2034.5313" y2="2034.5313"/><text fill="#000000" font-family="sans-serif" font-size="13" lengthAdjust="spacing" textLength="63" x="829.5" y="2029.4653">app crash</text><line style="stroke:#A80036;stroke-width:1.0;" x1="1148" x2="1138" y1="2063.6641" y2="2059.6641"/><line style="stroke:#A80036;stroke-width:1.0;" x1="1148" x2="1138" y1="2063.6641" y2="2067.6641"/><line style="stroke:#A80036;stroke-width:1.0;" x1="812.5" x2="1149" y1="2063.6641" y2="2063.6641"/><text fill="#000000" font-family="sans-serif" font-size="13" lengthAdjust="spacing" textLength="43" x="819.5" y="2058.5981">restart</text><!--MD5=[201d53750b4c4a2cccbfb3053f07884e]
@startuml
box "Team" #LightBlue
	entity "reviewer" as reviewer
	entity "author" as author
end box

'autonumber

== Preparing the change ==
author ->> github: push branch
author ->> github: start pull-request
	participant snyk
	github ->> githubactions: branch available
    github ->> snyk: branch available

== Checking the change ==
    activate snyk    

par Snyk and GitHub Actions check the branch
    snyk -> snyk: inspect dependencies
    loop vulnerabilities are found
        github <<- - snyk: report problems
        author <<- - github: report failure
        author ->> github: push changes to branch
        github ->> snyk: changes available
        snyk -> snyk: inspect dependencies
    end
    github <<- - snyk: report success
    deactivate snyk
	
    activate githubactions
    githubactions -> githubactions: run tests
    loop tests are failing
        github <<- - githubactions: report problems
        author <<- - github: report failure
        author ->> github: push changes to branch
        github ->> githubactions: changes available
        githubactions -> githubactions: run tests
    end
    github <<- - githubactions: report success
    deactivate githubactions
end

author <<- - github: report successes

== Reviewing the change ==
author ->> github: request review
create reviewer
reviewer <<- - github: notify of pull-request
reviewer ->> github: inspect  branch
loop change needed/bug identified
    reviewer ->> github: note findings
    author <<- - github: report findings
    author ->> github: push changes to branch
    reviewer <<- - github: report changes
end
reviewer ->> github: approve pull-request

alt either the author
	author ->> github: merge into deployment branch
else or the reviewer
	reviewer ->> github: merge into deployment branch
end

== Deploying the change ==
github ->> githubactions: deployment branch changed

participant "application in staging" as stagingapp
create capi
githubactions -> capi: push code to staging
create stagingapp
capi -> stagingapp: stage
capi -> stagingapp: start
activate stagingapp 
capi ->> stagingapp: monitor
loop
	stagingapp ->> stagingapp: handle requests
    opt 
        capi <<- stagingapp: app crash
        capi ->> stagingapp: restart
    end
end

githubactions -> stagingapp: run smoke tests
alt smoke tests fail
    author <<- - githubactions: report problems
else smoke tests pass
    participant "application in production" as app
    githubactions -> capi: push code to production
    create app
    capi -> app: stage 
    capi -> app: start
    activate app 
    capi ->> app: monitor
    loop
        app ->> app: handle requests
        opt 
            capi <<- app: app crash
            capi ->> app: restart
        end
    end
    deactivate app
end

box "Deployment SaaS" #LightGreen
	participant github
    participant githubactions
    participant snyk
end box

box "cloud.gov" #Green
	participant "cloud.gov controller" as capi
    participant stagingapp
    participant app
end box
@enduml

@startuml
box "Team" #LightBlue
	entity "reviewer" as reviewer
	entity "author" as author
end box


== Preparing the change ==
author ->> github: push branch
author ->> github: start pull-request
	participant snyk
	github ->> githubactions: branch available
    github ->> snyk: branch available

== Checking the change ==
    activate snyk    

par Snyk and GitHub Actions check the branch
    snyk -> snyk: inspect dependencies
    loop vulnerabilities are found
        github <<- - snyk: report problems
        author <<- - github: report failure
        author ->> github: push changes to branch
        github ->> snyk: changes available
        snyk -> snyk: inspect dependencies
    end
    github <<- - snyk: report success
    deactivate snyk
	
    activate githubactions
    githubactions -> githubactions: run tests
    loop tests are failing
        github <<- - githubactions: report problems
        author <<- - github: report failure
        author ->> github: push changes to branch
        github ->> githubactions: changes available
        githubactions -> githubactions: run tests
    end
    github <<- - githubactions: report success
    deactivate githubactions
end

author <<- - github: report successes

== Reviewing the change ==
author ->> github: request review
create reviewer
reviewer <<- - github: notify of pull-request
reviewer ->> github: inspect  branch
loop change needed/bug identified
    reviewer ->> github: note findings
    author <<- - github: report findings
    author ->> github: push changes to branch
    reviewer <<- - github: report changes
end
reviewer ->> github: approve pull-request

alt either the author
	author ->> github: merge into deployment branch
else or the reviewer
	reviewer ->> github: merge into deployment branch
end

== Deploying the change ==
github ->> githubactions: deployment branch changed

participant "application in staging" as stagingapp
create capi
githubactions -> capi: push code to staging
create stagingapp
capi -> stagingapp: stage
capi -> stagingapp: start
activate stagingapp 
capi ->> stagingapp: monitor
loop
	stagingapp ->> stagingapp: handle requests
    opt 
        capi <<- stagingapp: app crash
        capi ->> stagingapp: restart
    end
end

githubactions -> stagingapp: run smoke tests
alt smoke tests fail
    author <<- - githubactions: report problems
else smoke tests pass
    participant "application in production" as app
    githubactions -> capi: push code to production
    create app
    capi -> app: stage 
    capi -> app: start
    activate app 
    capi ->> app: monitor
    loop
        app ->> app: handle requests
        opt 
            capi <<- app: app crash
            capi ->> app: restart
        end
    end
    deactivate app
end

box "Deployment SaaS" #LightGreen
	participant github
    participant githubactions
    participant snyk
end box

box "cloud.gov" #Green
	participant "cloud.gov controller" as capi
    participant stagingapp
    participant app
end box
@enduml

PlantUML version 1.2021.2beta9(Unknown compile time)
(GPL source distribution)
Java Runtime: Java(TM) SE Runtime Environment
JVM: Java HotSpot(TM) 64-Bit Server VM
Default Encoding: UTF-8
Language: en
Country: US
--></g></svg>